<?xml version="1.0" standalone="no"?><!DOCTYPE svg PUBLIC "-//W3C//DTD SVG 1.1//EN" "http://www.w3.org/Graphics/SVG/1.1/DTD/svg11.dtd"><svg t="1711264870407" class="icon" viewBox="0 0 1024 1024" version="1.1" xmlns="http://www.w3.org/2000/svg" p-id="4634" width="200" height="200" xmlns:xlink="http://www.w3.org/1999/xlink"><path d="M256.392998 315.466768m-29.845883 0a29.845883 29.845883 0 1 0 59.691767 0 29.845883 29.845883 0 1 0-59.691767 0Z" p-id="4635" fill="#33E6CC"></path><path d="M635.017519 566.217788c-3.457986-8.931965-13.503947-13.375948-22.437912-9.915961a224.193124 224.193124 0 0 0-52.483795 28.915887 17.349932 17.349932 0 0 0-3.615986 24.265905 17.309932 17.309932 0 0 0 13.951946 7.023973 17.275933 17.275933 0 0 0 10.311959-3.405987 189.47326 189.47326 0 0 1 44.357827-24.443904 17.347932 17.347932 0 0 0 9.915961-22.439913z" p-id="4636" fill="#33E6CC"></path><path d="M916.098421 772.734982c0.679997-82.981676-37.773852-167.919344-117.51354-259.512987-60.275765-69.23973-135.59947-115.13555-224.495124-136.925465-20.38792-4.99798-40.041844-7.79197-60.891762-9.915961 0.845997 0.086 5.251979-20.259921 5.529979-22.449912 0.124-0.977996 0.084-12.69795 0.157999-12.701951 39.889844-3.393987 84.809669-14.279944 128.409499-31.253878 56.909778-22.155913 106.985582-52.533795 140.999449-85.537666 37.717853-36.597857 52.047797-73.293714 40.359842-103.323596-11.615955-29.841883-46.621818-47.149816-98.609615-48.803809-0.555998-4.937981-1.687993-9.729962-3.477986-14.327944C714.519209 17.039933 677.347354 0 621.897571 0c-44.733825 0-98.209616 11.227956-150.581412 31.615877-57.969774 22.567912-109.327573 54.469787-142.161445 88.103655a262.502975 262.502975 0 0 0-30.361881 7.117973c-56.449779 16.731935-114.647552 52.885793-163.86736 101.803602a17.349932 17.349932 0 0 0 24.457904 24.609904c44.561826-44.287827 98.967613-78.241694 149.267417-93.147636 18.675927-5.535978 38.195851-8.905965 57.705775-8.905966 29.657884 0 56.37578 7.923969 79.605689 23.571908l0.455998 0.309999c4.625982 3.173988 9.109964 7.857969 14.619943 9.731962 5.345979 1.817993 11.449955 1.111996 16.037937-2.259991 0.028-0.02 0.058-0.032 0.086-0.054a396.92645 396.92645 0 0 1 34.879864-22.99191c20.783919-12.159953 43.721829-23.193909 67.881735-32.599873 0.165999-0.064 0.333999-0.124 0.497998-0.189999 46.747817-18.141929 97.17762-31.181878 147.669423-29.769884 36.599857 1.019996 62.107757 11.019957 68.229733 26.743896s-5.909977 40.337842-32.187874 65.837743c-30.76388 29.853883-76.7277 57.589775-129.425494 78.107695-46.261819 18.00793-93.753634 28.627888-133.719478 29.899883a17.345932 17.345932 0 0 0-16.795934 17.337932v24.907903c-13.209948 59.785766-42.953832 104.065593-88.427655 131.621486-38.709849 23.457908-89.021652 33.845868-141.687446 29.249885-91.289643-7.963969-170.077336-58.86577-172.325327-111.239565 0.114-23.11791 12.317952-53.315792 34.395865-85.087668a17.345932 17.345932 0 0 0-4.345983-24.141905c-7.863969-5.467979-18.677927-3.521986-24.145905 4.345983-26.559896 38.221851-40.599841 74.605709-40.599842 105.209589 0 0.215999 0.004 0.427998 0.012 0.639997 2.57599 69.587728 81.339682 121.469526 166.42735 139.265456-44.221827 86.99966-31.255878 163.85936-11.287956 214.567162 14.543943 36.927856 34.409866 64.935746 47.621814 81.095683-56.473779 40.663841-84.999668 85.419666-78.779692 124.577514 6.355975 40.009844 47.621814 57.407776 84.037672 57.407775 29.259886 0 62.767755-8.961965 97.28362-26.313897 47.369815-23.813907 95.239628-62.875754 139.669454-113.769556a190.421256 190.421256 0 0 0 7.62197 13.227949 22.337913 22.337913 0 0 0-2.655989 8.223968c-13.777946 11.247956-26.185898 26.333897-31.411878 44.205827-7.885969 26.963895 4.519982 55.909782 28.513889 70.293725 24.969902 14.969942 53.595791 20.841919 82.545677 20.841919 33.007871-0.002 69.329729-7.70197 108.649576-23.08791 5.783977-2.263991 9.367963-7.537971 16.033937-8.127968 49.859805-4.431983 99.421612-25.7219 138.169461-58.90577a89.68765 89.68765 0 0 0 47.611814 13.697947c49.529807 0 89.823649-40.293843 89.823649-89.82165 0.002-39.083847-24.879903-72.861715-60.843763-85.021667zM694.515287 63.423752c-2.205991 0.191999-4.427983 0.413998-6.659974 0.651998l-0.541998 0.059999c-73.999711 8.345967-146.809427 34.891864-209.213183 75.517705-0.086 0.056-0.163999 0.112-0.249999 0.166a404.220421 404.220421 0 0 0-10.869957 7.271971c-24.317905-16.815934-52.779794-26.941895-82.177679-29.755883 27.287893-20.195921 61.583759-38.785848 99.097613-53.389792 48.459811-18.863926 97.465619-29.251886 137.997461-29.251886 38.987848 0 66.027742 9.669962 72.333717 25.869899 0.353999 0.911996 0.647997 1.843993 0.875997 2.801989-0.193999 0.016-0.393998 0.042-0.591998 0.058z m131.705486 835.722736c-34.315866 33.23587-80.699685 54.727786-127.347503 59.025769-11.007957 0.307999-20.295921 6.039976-27.931891 11.099957-60.175765 23.231909-111.001566 26.269897-151.11541 9.027965-14.103945-6.075976-25.6079-19.697923-20.929918-35.693861 3.615986-12.365952 14.779942-23.911907 26.547896-31.889875 32.815872 26.915895 82.867676 47.063816 85.207668 47.995812 8.797966 3.511986 19.045926-0.927996 22.539912-9.685962a17.345932 17.345932 0 0 0-9.685963-22.539912c-15.737939-6.277975-61.127761-27.227894-83.173675-48.943809-0.201999-0.239999-0.395998-0.505998-0.601997-0.737997-14.503943-16.327936-22.611912-34.631865-28.721888-54.867786-13.849946-45.861821-9.419963-99.091613 14.501943-144.405436a17.347932 17.347932 0 0 0-30.67988-16.199936c-19.659923 37.237855-28.833887 81.015684-25.827899 123.265518 1.141996 16.047937 3.955985 31.545877 8.321967 46.307819-60.885762 73.265714-149.565416 142.101445-219.96114 142.089445-8.353967 0-16.463936-0.971996-24.225906-3.017988-11.311956-2.985988-25.321901-9.837962-27.815891-25.5319-3.461986-21.791915 15.737939-59.861766 80.011687-101.347604a17.373932 17.373932 0 0 0 2.70799-26.989895c-0.335999-0.327999-33.671868-33.36187-54.009789-85.789665-25.471901-65.655744-20.113921-131.273487 15.855938-195.203237 0.389998 0.036 0.781997 0.078 1.171995 0.109999 8.923965 0.779997 17.97393 1.183995 27.095894 1.183996 86.491662-0.002 179.047301-36.443858 222.81913-136.085469 6.535974-12.611951 97.643619 17.487932 105.667587 20.42392 46.369819 16.961934 88.967652 43.031832 130.201492 79.685689 0.137999 0.122 0.277999 0.241999 0.419998 0.359999 13.121949 10.935957 23.851907 21.663915 34.787864 34.787864l0.245999 0.289999c75.233706 86.379663 110.911567 164.981356 109.075574 240.299061l-0.004 0.423998c0 46.597818-22.059914 90.509646-55.147784 122.553522z m60.893762 13.729946a55.039785 55.039785 0 0 1-20.987918-4.157984 225.115121 225.115121 0 0 0 32.813872-53.169792 208.143187 208.143187 0 0 0 9.415963-25.427901 227.77111 227.77111 0 0 0 5.15998-20.805918c17.333932 9.401963 28.727888 27.707892 28.727887 48.43581 0 30.395881-24.729903 55.125785-55.129784 55.125785z" p-id="4637" fill="#33E6CC"></path></svg>